<?xml version="1.0" encoding="UTF-8"?>
<svg id="a" data-name="Layer 1" xmlns="http://www.w3.org/2000/svg" width="590" height="140" viewBox="0 0 590 140">
  <path d="M0,140V0H90V80H40v60H0ZM40,60h10V20h-10V60Z" fill="#212721"/>
  <path d="M100,140V0h90V50l-20,20,20,20v50h-40v-60h-10v60h-40Zm40-80h10V20h-10V60Z" fill="#212721"/>
  <path d="M200,140V0h70l20,20v120h-40v-60h-10v60h-40Zm40-80h10V20h-10V60Z" fill="#212721"/>
  <path d="M300,140V0h40V60h10V0h40V140h-40v-60h-10v60h-40Z" fill="#212721"/>
  <path d="M420,140l-20-20V20L420,0h50l20,20V120l-20,20h-50Zm20-20h10V20h-10V120Z" fill="#212721"/>
  <path d="M500,140V0h40V60h10V0h40V50l-20,20,20,20v50h-40v-60h-10v60h-40Z" fill="#212721"/>
</svg>