<?xml version="1.0" encoding="UTF-8" standalone="no"?>
<!-- Created with Inkscape (http://www.inkscape.org/) -->

<svg
   width="132mm"
   height="50mm"
   viewBox="0 0 132 49.999997"
   version="1.1"
   id="svg5"
   sodipodi:docname="logo-4.svg"
   inkscape:version="1.1 (c68e22c387, 2021-05-23)"
   inkscape:export-filename="C:\Users\dhong\Downloads\prhk-wiki-jsm-invert.png"
   inkscape:export-xdpi="96"
   inkscape:export-ydpi="96"
   xmlns:inkscape="http://www.inkscape.org/namespaces/inkscape"
   xmlns:sodipodi="http://sodipodi.sourceforge.net/DTD/sodipodi-0.dtd"
   xmlns="http://www.w3.org/2000/svg"
   xmlns:svg="http://www.w3.org/2000/svg">
  <sodipodi:namedview
     id="namedview7"
     pagecolor="#ffffff"
     bordercolor="#666666"
     borderopacity="1.0"
     inkscape:pageshadow="2"
     inkscape:pageopacity="0.0"
     inkscape:pagecheckerboard="0"
     inkscape:document-units="mm"
     showgrid="false"
     inkscape:zoom="1"
     inkscape:cx="264"
     inkscape:cy="244.5"
     inkscape:window-width="2135"
     inkscape:window-height="1321"
     inkscape:window-x="-9"
     inkscape:window-y="-9"
     inkscape:window-maximized="1"
     inkscape:current-layer="layer1"
     fit-margin-top="0"
     fit-margin-left="0"
     fit-margin-right="0"
     fit-margin-bottom="0"
     units="mm"
     width="130mm"
     height="132px" />
  <defs
     id="defs2" />
  <g
     inkscape:label="Layer 1"
     inkscape:groupmode="layer"
     id="layer1"
     transform="translate(-35.590442,-47.132789)">
    <rect
       style="fill:#e00025;fill-opacity:1;stroke:#ffffff;stroke-width:0;stroke-linecap:square;stroke-miterlimit:0;stroke-dasharray:none;paint-order:fill markers stroke"
       id="rect31"
       width="23.485462"
       height="24.804688"
       x="35.757252"
       y="59.264671" />
    <g
       aria-label="PRAHOK"
       id="text5219"
       style="font-size:28.2222px;line-height:1.25;font-family:Dustfine;-inkscape-font-specification:Dustfine;stroke-width:0.264583"
       transform="matrix(1.2762815,0,0,1.2762815,-9.6661707,-0.89003702)">
      <path
         d="m 63.395988,52.717309 h -1.378037 v 1.378038 h 1.378037 z m 5.512148,-5.512148 v 12.402334 h -6.890185 v 6.890186 h -5.512149 v -19.29252 z"
         id="path12170" />
      <path
         d="m 77.176359,52.717309 h -1.378037 v 1.378038 h 1.378037 z m 5.512149,-5.512148 v 7.579204 l -2.756074,2.756074 h 2.756074 v 8.957242 h -5.512149 v -6.890186 h -1.378037 v 6.890186 h -5.512148 v -19.29252 z"
         id="path12172" />
      <path
         d="m 96.46888,66.497681 h -5.512149 v -6.890186 h -1.378037 v 6.890186 H 84.066545 V 47.205161 H 96.46888 Z M 90.956731,54.095347 v -1.378038 h -1.378037 v 1.378038 z"
         id="path12174" />
      <path
         d="m 103.35906,59.607495 v 6.890186 h -5.512144 v -19.29252 h 5.512144 v 6.890186 h 1.37804 v -6.890186 h 5.51215 v 19.29252 h -5.51215 v -6.890186 z"
         id="path12176" />
      <path
         d="m 118.51747,60.985532 v -8.268223 h -1.37803 v 8.268223 z m 5.51215,5.512149 h -12.40233 v -19.29252 h 12.40233 z"
         id="path12178" />
      <path
         d="m 125.40766,47.205161 h 5.51215 v 6.890186 h 1.37803 v -6.890186 h 5.51215 v 7.579204 l -2.75607,2.756074 h 2.75607 v 8.957242 h -5.51215 v -6.890186 h -1.37803 v 6.890186 h -5.51215 z"
         id="path12180" />
    </g>
  </g>
</svg>
