<?xml version="1.0" encoding="UTF-8" standalone="no"?>
<svg
   xmlns:dc="http://purl.org/dc/elements/1.1/"
   xmlns:cc="http://creativecommons.org/ns#"
   xmlns:rdf="http://www.w3.org/1999/02/22-rdf-syntax-ns#"
   xmlns:svg="http://www.w3.org/2000/svg"
   xmlns="http://www.w3.org/2000/svg"
   xmlns:sodipodi="http://sodipodi.sourceforge.net/DTD/sodipodi-0.dtd"
   xmlns:inkscape="http://www.inkscape.org/namespaces/inkscape"
   width="55.578556mm"
   height="12.346656mm"
   viewBox="0 0 55.578556 12.346656"
   version="1.1"
   id="svg8"
   inkscape:version="1.0.2-2 (e86c870879, 2021-01-15)"
   sodipodi:docname="logo.svg">
  <defs
     id="defs2" />
  <sodipodi:namedview
     id="base"
     pagecolor="#ffffff"
     bordercolor="#666666"
     borderopacity="1.0"
     inkscape:pageopacity="0.0"
     inkscape:pageshadow="2"
     inkscape:zoom="3.959798"
     inkscape:cx="86.760592"
     inkscape:cy="32.758739"
     inkscape:document-units="mm"
     inkscape:current-layer="layer1"
     inkscape:document-rotation="0"
     showgrid="false"
     inkscape:window-width="2400"
     inkscape:window-height="1284"
     inkscape:window-x="-9"
     inkscape:window-y="-9"
     inkscape:window-maximized="1"
     fit-margin-top="0"
     fit-margin-left="0"
     fit-margin-right="0"
     fit-margin-bottom="0" />
  <metadata
     id="metadata5">
    <rdf:RDF>
      <cc:Work
         rdf:about="">
        <dc:format>image/svg+xml</dc:format>
        <dc:type
           rdf:resource="http://purl.org/dc/dcmitype/StillImage" />
        <dc:title />
      </cc:Work>
    </rdf:RDF>
  </metadata>
  <g
     inkscape:label="Layer 1"
     inkscape:groupmode="layer"
     id="layer1"
     transform="translate(-19.208377,-18.769363)">
    <path
       id="text12"
       style="font-style:normal;font-variant:normal;font-weight:normal;font-stretch:normal;font-size:16.9333px;line-height:1.25;font-family:'Helvetica Neue';-inkscape-font-specification:'Helvetica Neue';letter-spacing:-0.510646px;fill:#000000;fill-opacity:1;stroke:none;stroke-width:0.999999"
       d="M 0 0 L 0 45.695312 L 8 45.695312 L 8 28.160156 L 20.160156 28.160156 C 33.216131 28.224156 35.712891 19.77652 35.712891 14.144531 C 35.712891 8.4485425 33.216131 0 20.160156 0 L 0 0 z M 94.585938 0 L 94.585938 45.695312 L 101.88086 45.695312 L 101.88086 26.175781 C 101.88086 21.311791 105.01687 17.472656 109.88086 17.472656 C 114.16885 17.472656 116.2177 19.712495 116.3457 24.896484 L 116.3457 45.695312 L 123.64258 45.695312 L 123.64258 22.976562 C 123.64258 15.552577 119.09767 11.712891 111.92969 11.712891 C 107.5777 11.712891 103.80176 13.952943 102.00977 16.960938 L 101.88086 16.960938 L 101.88086 0 L 94.585938 0 z M 162.35547 0 L 162.35547 45.695312 L 169.65234 45.695312 L 169.65234 33.855469 L 174.00391 29.632812 L 184.11523 45.695312 L 193.01172 45.695312 L 179.12305 24.767578 L 191.79492 12.607422 L 182.83594 12.607422 L 169.65234 25.984375 L 169.65234 0 L 162.35547 0 z M 8 6.5273438 L 19.839844 6.5273438 C 24.063835 6.5273438 27.712891 8.06409 27.712891 14.080078 C 27.712891 19.840067 23.296884 21.632812 19.712891 21.632812 L 8 21.632812 L 8 6.5273438 z M 54.664062 11.712891 C 50.184071 11.712891 45.831998 15.487819 45 19.007812 L 44.871094 19.007812 L 44.871094 12.607422 L 38.023438 12.607422 L 38.023438 45.695312 L 45.320312 45.695312 L 45.320312 29.951172 C 45.320312 22.655186 49.287307 18.623047 54.279297 18.623047 C 55.303295 18.623047 56.392018 18.81536 57.416016 18.943359 L 57.416016 11.904297 C 56.776017 11.840297 56.328059 11.712891 54.664062 11.712891 z M 74.845703 11.712891 C 67.549717 11.712891 60.31864 14.20872 59.806641 22.720703 L 67.101562 22.720703 C 67.421562 19.13671 70.302446 17.472656 74.398438 17.472656 C 77.342432 17.472656 81.246094 18.175179 81.246094 21.951172 C 81.246094 26.239163 76.574162 25.663049 71.326172 26.623047 C 65.182184 27.327045 58.589844 28.671751 58.589844 36.927734 C 58.589844 43.391722 63.96598 46.591797 69.917969 46.591797 C 73.821961 46.591797 78.493053 45.376541 81.373047 42.560547 C 81.949046 45.568541 84.061865 46.591797 87.005859 46.591797 C 88.221857 46.591797 90.525283 46.143765 91.613281 45.759766 L 91.613281 40.703125 C 90.845283 40.831125 90.270265 40.832031 89.822266 40.832031 C 88.478268 40.832031 88.09375 40.127934 88.09375 38.335938 L 88.09375 21.3125 C 88.09375 14.336514 81.30969 11.712891 74.845703 11.712891 z M 142.88867 11.712891 C 132.26469 11.712891 126.18555 19.007161 126.18555 29.119141 C 126.18555 39.295121 132.26469 46.591797 142.88867 46.591797 C 153.51265 46.591797 159.59375 39.295121 159.59375 29.119141 C 159.59375 19.007161 153.51265 11.712891 142.88867 11.712891 z M 142.88867 17.472656 C 149.41666 17.472656 152.29688 23.423152 152.29688 29.119141 C 152.29688 34.879129 149.41666 40.832031 142.88867 40.832031 C 136.36068 40.832031 133.48242 34.879129 133.48242 29.119141 C 133.48242 23.423152 136.36068 17.472656 142.88867 17.472656 z M 80.796875 29.119141 L 80.796875 34.560547 C 80.796875 39.168538 75.805462 40.832031 72.605469 40.832031 C 70.045474 40.832031 65.886719 39.871415 65.886719 36.607422 C 65.886719 32.767429 68.701897 31.615515 71.837891 31.103516 C 75.037884 30.527517 78.556879 30.591138 80.796875 29.119141 z "
       transform="matrix(0.26458333,0,0,0.26458333,19.208377,18.769363)" />
    <rect
       id="rect678"
       width="5.278573"
       height="5.278573"
       x="69.376068"
       y="25.705154"
       style="fill:#ff6600;stroke:#ffffff;stroke-width:0.264583" />
  </g>
</svg>
