<?xml version="1.0" encoding="UTF-8" standalone="no"?>
<!-- Created with Inkscape (http://www.inkscape.org/) -->

<svg
   width="134.31703mm"
   height="32.175007mm"
   viewBox="0 0 134.31704 32.175007"
   version="1.1"
   id="svg5"
   sodipodi:docname="prahok-logo-bau.svg"
   inkscape:version="1.1 (c68e22c387, 2021-05-23)"
   xmlns:inkscape="http://www.inkscape.org/namespaces/inkscape"
   xmlns:sodipodi="http://sodipodi.sourceforge.net/DTD/sodipodi-0.dtd"
   xmlns="http://www.w3.org/2000/svg"
   xmlns:svg="http://www.w3.org/2000/svg">
  <sodipodi:namedview
     id="namedview7"
     pagecolor="#ffffff"
     bordercolor="#666666"
     borderopacity="1.0"
     inkscape:pageshadow="2"
     inkscape:pageopacity="0.0"
     inkscape:pagecheckerboard="0"
     inkscape:document-units="mm"
     showgrid="false"
     inkscape:zoom="1.0859962"
     inkscape:cx="253.68413"
     inkscape:cy="218.69321"
     inkscape:window-width="1586"
     inkscape:window-height="1051"
     inkscape:window-x="-9"
     inkscape:window-y="1341"
     inkscape:window-maximized="1"
     inkscape:current-layer="layer1"
     fit-margin-top="0"
     fit-margin-left="0"
     fit-margin-right="0"
     fit-margin-bottom="0" />
  <defs
     id="defs2" />
  <g
     inkscape:label="Layer 1"
     inkscape:groupmode="layer"
     id="layer1"
     transform="translate(-31.665119,-103.47766)">
    <path
       style="fill:#000000;stroke-width:0.264583"
       d="m 78.441424,135.40223 c -4.20552,-1.18735 -6.227072,-5.30855 -4.560512,-9.29719 1.136589,-2.72024 4.986539,-4.36326 10.237854,-4.36913 l 1.785938,-0.002 v -1.20377 c 0,-2.27572 -1.320155,-3.5521 -3.291417,-3.18229 -0.98633,0.18503 -2.00025,1.21935 -2.00025,2.04049 0,0.45637 -0.259578,0.49348 -3.451572,0.49348 h -3.451574 l 0.180054,-0.99218 c 0.271513,-1.49619 1.005655,-2.76937 2.239775,-3.88432 1.390028,-1.25581 2.784046,-1.87808 5.11253,-2.28215 4.718114,-0.81876 9.165062,0.90404 10.776281,4.17486 0.597096,1.21212 0.628653,1.57353 0.76879,8.80463 0.120912,6.23902 0.222236,7.71189 0.58701,8.53281 l 0.440872,0.99219 H 90.37562 86.936036 l -0.400682,-0.95897 -0.40068,-0.95896 -0.710298,0.66418 c -0.390662,0.36529 -1.100608,0.86115 -1.577652,1.1019 -1.18164,0.59635 -3.873481,0.7589 -5.4053,0.32642 z m 6.147636,-5.10807 c 1.132129,-0.75382 1.315644,-1.1799 1.315644,-3.05457 v -1.80152 h -1.595999 c -2.152758,0 -3.347881,0.52999 -3.837482,1.70178 -0.556726,1.33243 -0.479502,2.19888 0.26208,2.94046 0.792329,0.79233 2.818212,0.90469 3.855757,0.21385 z m 43.43104,5.19633 c -4.45869,-0.94279 -7.31241,-4.21207 -8.04118,-9.21214 -0.81908,-5.61973 1.43862,-10.77983 5.54482,-12.673 5.38125,-2.48103 11.9565,-0.55837 14.32929,4.19 1.0962,2.1937 1.43678,4.11529 1.28369,7.24287 -0.32107,6.55954 -3.83584,10.28783 -9.98826,10.59507 -1.09141,0.0545 -2.49917,-0.01 -3.12836,-0.1428 z m 4.57424,-5.65635 c 1.31883,-0.86413 1.59683,-1.83675 1.59683,-5.58669 0,-3.9752 -0.40423,-5.19316 -2.00254,-6.03371 -2.15934,-1.13559 -4.40924,0.0371 -5.18393,2.70191 -0.52634,1.81056 -0.38538,6.10221 0.2398,7.30055 0.44115,0.8456 1.39849,1.81423 2.05188,2.07606 0.66764,0.26756 2.60014,-7.9e-4 3.29796,-0.45812 z M 31.665119,120.14641 v -15.08125 l 6.416146,0.002 c 7.236221,0.002 9.145163,0.22415 11.468871,1.33315 2.150314,1.02625 3.677321,2.55771 4.69461,4.7083 0.74367,1.57214 0.833056,2.01805 0.830519,4.14301 -0.0024,2.00249 -0.111646,2.61463 -0.686893,3.84853 -0.935857,2.0074 -2.042162,3.18953 -3.923277,4.19215 -2.153897,1.14801 -4.547455,1.60652 -8.41508,1.612 l -3.241146,0.005 v 5.15937 5.15938 h -3.571875 -3.571875 z m 14.2785,-1.25718 c 1.320602,-0.66619 1.949023,-1.90677 1.931075,-3.81218 -0.01145,-1.21579 -0.16426,-1.79394 -0.680228,-2.57362 -1.018197,-1.53859 -2.012523,-1.88202 -5.44902,-1.88202 h -2.936577 v 4.36562 4.36563 l 3.108855,-4.3e-4 c 2.433106,-3.1e-4 3.308184,-0.10096 4.025895,-0.46302 z m 12.973584,5.09364 v -11.2448 h 3.146692 c 3.510635,0 3.467892,-0.0237 3.467892,1.92135 v 1.08432 l 0.977421,-1.1419 c 1.471755,-1.71941 3.463168,-2.45556 5.306433,-1.96159 0.575014,0.1541 0.595312,0.26675 0.595312,3.30368 v 3.14414 h -1.96715 c -2.157796,0 -3.146576,0.27381 -4.052121,1.12208 -0.589232,0.55197 -0.595312,0.63151 -0.595312,7.78759 v 7.22992 h -3.439584 -3.439583 z m 37.570834,-4.63021 v -15.875 h 3.439581 3.439592 v 5.82083 c 0,3.20146 0.0749,5.82083 0.16637,5.82083 0.0915,0 0.62236,-0.41196 1.17969,-0.91547 2.66109,-2.40414 7.65253,-2.16616 9.91116,0.47253 1.76641,2.06366 1.97195,3.36752 1.97195,12.50936 v 8.04192 h -3.43959 -3.43958 v -7.68606 c 0,-8.65138 -0.0572,-8.96315 -1.74604,-9.52052 -1.20873,-0.39892 -2.89569,-0.18479 -3.7873,0.48073 l -0.68437,0.51082 -0.07,8.10751 -0.07,8.10752 h -3.435762 -3.435761 z m 47.889593,0 v -15.875 h 3.43586 3.43587 l 0.0699,8.38698 0.0699,8.38698 3.00084,-3.75677 3.00085,-3.75678 h 4.10139 4.1014 l -1.06104,1.25678 c -0.58358,0.69122 -2.31972,2.74505 -3.85811,4.56406 -1.53838,1.81901 -2.7984,3.37808 -2.80005,3.46461 -0.002,0.0865 1.79343,3.00356 3.98906,6.48229 2.19563,3.47874 4.04813,6.41427 4.11666,6.52341 0.0685,0.10914 -1.6386,0.19719 -3.79362,0.19568 l -3.91822,-0.003 -2.3764,-4.09828 c -1.30703,-2.25405 -2.50406,-4.09828 -2.66008,-4.09828 -0.15602,0 -0.66421,0.39262 -1.12932,0.8725 l -0.84566,0.87249 v 3.22855 3.22855 h -3.43958 -3.43958 z"
       id="path122" />
  </g>
</svg>
